<svg width="18" height="19" viewBox="0 0 18 19" fill="none" xmlns="http://www.w3.org/2000/svg">
<path d="M17.9081 6.03077C17.8676 5.11275 17.7192 4.48163 17.5065 3.93475C17.2871 3.35425 16.9496 2.83453 16.5074 2.40248C16.0754 1.96372 15.5522 1.62277 14.9784 1.40682C14.4284 1.19416 13.8006 1.0457 12.8826 1.00523C11.9577 0.961324 11.6641 0.951172 9.31835 0.951172C6.97263 0.951172 6.67901 0.961324 5.75757 1.0018C4.83956 1.04227 4.20843 1.19086 3.66169 1.40339C3.08106 1.62277 2.56134 1.96029 2.12929 2.40248C1.69052 2.83453 1.34971 3.35768 1.13362 3.93145C0.920963 4.48163 0.772509 5.10932 0.732034 6.02734C0.68813 6.95221 0.677979 7.24582 0.677979 9.59155C0.677979 11.9373 0.68813 12.2309 0.728606 13.1523C0.769081 14.0703 0.917667 14.7015 1.13033 15.2483C1.34971 15.8288 1.69052 16.3486 2.12929 16.7806C2.56134 17.2194 3.08448 17.5603 3.65826 17.7763C4.20843 17.9889 4.83613 18.1374 5.75428 18.1779C6.67559 18.2185 6.96933 18.2285 9.31506 18.2285C11.6608 18.2285 11.9544 18.2185 12.8758 18.1779C13.7938 18.1374 14.425 17.9889 14.9717 17.7763C16.1329 17.3274 17.0509 16.4093 17.4998 15.2483C17.7123 14.6982 17.8609 14.0703 17.9014 13.1523C17.9418 12.2309 17.952 11.9373 17.952 9.59155C17.952 7.24582 17.9486 6.95221 17.9081 6.03077ZM16.3522 13.0848C16.3151 13.9286 16.1733 14.3843 16.0552 14.688C15.7649 15.4407 15.1675 16.0381 14.4148 16.3284C14.1111 16.4465 13.6521 16.5882 12.8116 16.6253C11.9003 16.6659 11.627 16.6759 9.32178 16.6759C7.01653 16.6759 6.73979 16.6659 5.8318 16.6253C4.98801 16.5882 4.53237 16.4465 4.22861 16.3284C3.85404 16.19 3.5131 15.9706 3.23637 15.6837C2.94948 15.4035 2.73009 15.066 2.59166 14.6914C2.47353 14.3877 2.3318 13.9286 2.29475 13.0882C2.25415 12.177 2.24413 11.9035 2.24413 9.59827C2.24413 7.29302 2.25415 7.01628 2.29475 6.10842C2.3318 5.26463 2.47353 4.80899 2.59166 4.50523C2.73009 4.13053 2.94948 3.78972 3.23979 3.51285C3.51982 3.22597 3.85734 3.00658 4.23203 2.86828C4.5358 2.75015 4.99487 2.60842 5.83523 2.57124C6.74652 2.53077 7.01996 2.52061 9.32508 2.52061C11.6338 2.52061 11.9071 2.53077 12.8151 2.57124C13.6588 2.60842 14.1145 2.75015 14.4183 2.86828C14.7928 3.00658 15.1338 3.22597 15.4105 3.51285C15.6974 3.79302 15.9168 4.13053 16.0552 4.50523C16.1733 4.80899 16.3151 5.26793 16.3522 6.10842C16.3927 7.01971 16.4029 7.29302 16.4029 9.59827C16.4029 11.9035 16.3927 12.1735 16.3522 13.0848Z" fill="white"/>
<path d="M9.31844 5.15332C6.86817 5.15332 4.88013 7.14123 4.88013 9.59164C4.88013 12.042 6.86817 14.03 9.31844 14.03C11.7689 14.03 13.7568 12.042 13.7568 9.59164C13.7568 7.14123 11.7689 5.15332 9.31844 5.15332ZM9.31844 12.4707C7.72883 12.4707 6.43942 11.1814 6.43942 9.59164C6.43942 8.00189 7.72883 6.71261 9.31844 6.71261C10.9082 6.71261 12.1975 8.00189 12.1975 9.59164C12.1975 11.1814 10.9082 12.4707 9.31844 12.4707Z" fill="white"/>
<path d="M14.9684 4.97755C14.9684 5.54974 14.5045 6.01369 13.9321 6.01369C13.3599 6.01369 12.896 5.54974 12.896 4.97755C12.896 4.40523 13.3599 3.94141 13.9321 3.94141C14.5045 3.94141 14.9684 4.40523 14.9684 4.97755Z" fill="white"/>
</svg>
