<svg width="18" height="15" viewBox="0 0 18 15" fill="none" xmlns="http://www.w3.org/2000/svg">
<path d="M17.4117 2.25924C16.7723 2.5397 16.091 2.7256 15.3807 2.81587C16.1115 2.37959 16.6692 1.69401 16.9314 0.867665C16.2501 1.27385 15.4979 1.56077 14.6962 1.72088C14.0493 1.03207 13.1274 0.605469 12.1216 0.605469C10.1701 0.605469 8.59911 2.18939 8.59911 4.13115C8.59911 4.41054 8.62275 4.67918 8.68078 4.93493C5.75041 4.79201 3.15747 3.38754 1.41558 1.24806C1.11148 1.77568 0.933098 2.37959 0.933098 3.02971C0.933098 4.25042 1.56172 5.33252 2.49875 5.959C1.93245 5.94825 1.3769 5.78384 0.906233 5.52487C0.906233 5.53561 0.906233 5.54958 0.906233 5.56355C0.906233 7.27642 2.12802 8.69916 3.73021 9.02691C3.4433 9.10535 3.1306 9.14296 2.80608 9.14296C2.58042 9.14296 2.35261 9.13006 2.13877 9.08278C2.59546 10.4787 3.8914 11.5049 5.43234 11.5382C4.23311 12.4763 2.71044 13.0415 1.06205 13.0415C0.772986 13.0415 0.495746 13.0286 0.218506 12.9932C1.77986 14 3.63028 14.5749 5.62576 14.5749C12.1119 14.5749 15.658 9.20206 15.658 4.54486C15.658 4.38904 15.6526 4.2386 15.6451 4.08924C16.3446 3.59278 16.9324 2.97276 17.4117 2.25924Z" fill="white"/>
</svg>
