<svg width="20" height="15" viewBox="0 0 20 15" fill="none" xmlns="http://www.w3.org/2000/svg">
<path d="M9.81417 14.3421C9.8126 14.3421 9.81089 14.3421 9.80918 14.3421C9.24531 14.3383 4.26039 14.2928 2.84806 13.9108C1.86103 13.6455 1.08187 12.8672 0.815826 11.88C0.446277 10.4926 0.469801 7.82154 0.472368 7.60825C0.469944 7.39596 0.446134 4.70276 0.814685 3.30397C0.815113 3.30269 0.815398 3.30127 0.815826 3.29998C1.07887 2.32407 1.87557 1.52167 2.84564 1.25563C2.84806 1.25492 2.85063 1.25435 2.85305 1.25363C4.24941 0.886651 9.24417 0.84174 9.80918 0.837891H9.81931C10.3846 0.84174 15.3828 0.887221 16.7821 1.26974C17.7666 1.53436 18.5452 2.31167 18.812 3.29756C19.1953 4.69734 19.1598 7.39639 19.156 7.62422C19.1587 7.84863 19.1811 10.4958 18.8137 11.8901C18.8134 11.8916 18.8129 11.8929 18.8127 11.8941C18.5465 12.8813 17.7675 13.6596 16.7793 13.9252C16.778 13.9257 16.7766 13.9259 16.7753 13.9264C15.3791 14.2932 10.3842 14.3381 9.81931 14.3421C9.8176 14.3421 9.81588 14.3421 9.81417 14.3421ZM2.22587 3.67837C1.90138 4.91305 1.93203 7.5719 1.93231 7.5987V7.61795C1.92262 8.35533 1.95669 10.4908 2.22601 11.5022C2.35661 11.9865 2.74085 12.3702 3.22816 12.5012C4.27023 12.7831 8.33027 12.8718 9.81417 12.8822C11.3019 12.8718 15.368 12.7855 16.4023 12.5149C16.8881 12.3834 17.271 12.0011 17.4025 11.5162C17.6721 10.4899 17.7059 8.36489 17.696 7.6322C17.696 7.6245 17.696 7.61681 17.6962 7.60911C17.7096 6.86288 17.6832 4.70247 17.4038 3.68293C17.4035 3.68194 17.4032 3.68094 17.403 3.67994C17.2719 3.19348 16.8875 2.80982 16.4002 2.67879C15.3682 2.39664 11.3016 2.30825 9.81417 2.29784C8.32742 2.30825 4.26538 2.39436 3.22787 2.66468C2.74983 2.79727 2.3569 3.19462 2.22587 3.67837ZM18.1078 11.7042H18.1082H18.1078ZM7.95345 10.5463V4.63361L13.0633 7.59L7.95345 10.5463Z" fill="white"/>
</svg>
